<svg width="12" height="12" viewBox="0 0 12 12" fill="none" xmlns="http://www.w3.org/2000/svg">
<path d="M6.00034 0.75C6.39816 0.75 6.77969 0.908035 7.061 1.18934C7.3423 1.47064 7.50034 1.85218 7.50034 2.25V3.75H4.50034V2.25C4.50034 1.85218 4.65837 1.47064 4.93968 1.18934C5.22098 0.908035 5.60251 0.75 6.00034 0.75ZM8.25034 3.75V2.25C8.25034 1.65326 8.01328 1.08097 7.59133 0.65901C7.16937 0.237053 6.59707 0 6.00034 0C5.4036 0 4.8313 0.237053 4.40935 0.65901C3.98739 1.08097 3.75034 1.65326 3.75034 2.25V3.75H2.52034C2.25099 3.75006 1.99061 3.84675 1.78651 4.0225C1.5824 4.19825 1.44813 4.4414 1.40809 4.70775L0.637836 9.8475C0.597927 10.1142 0.616011 10.3863 0.690854 10.6454C0.765697 10.9045 0.895539 11.1443 1.07152 11.3487C1.2475 11.553 1.46548 11.7169 1.7106 11.8293C1.95571 11.9417 2.22218 11.9999 2.49184 12H9.50809C9.77781 12.0001 10.0444 11.9419 10.2896 11.8296C10.5348 11.7172 10.7528 11.5533 10.9289 11.3489C11.105 11.1446 11.2349 10.9047 11.3098 10.6456C11.3847 10.3865 11.4028 10.1142 11.3628 9.8475L10.5918 4.70775C10.5518 4.44153 10.4176 4.19848 10.2137 4.02275C10.0098 3.84701 9.74955 3.75024 9.48034 3.75H8.25034ZM7.50034 4.5V5.625C7.50034 5.72446 7.53984 5.81984 7.61017 5.89016C7.6805 5.96049 7.77588 6 7.87534 6C7.97479 6 8.07018 5.96049 8.1405 5.89016C8.21083 5.81984 8.25034 5.72446 8.25034 5.625V4.5H9.47959C9.56936 4.50009 9.65613 4.53238 9.72411 4.59101C9.7921 4.64964 9.8368 4.73071 9.85009 4.8195L10.6211 9.95775C10.6451 10.1178 10.6344 10.2812 10.5895 10.4367C10.5447 10.5922 10.4668 10.7362 10.3612 10.8589C10.2557 10.9816 10.1249 11.08 9.97774 11.1475C9.83063 11.215 9.67069 11.25 9.50884 11.25H2.49184C2.32998 11.25 2.17004 11.215 2.02293 11.1475C1.87582 11.08 1.74501 10.9816 1.63942 10.8589C1.53384 10.7362 1.45597 10.5922 1.41112 10.4367C1.36628 10.2812 1.35552 10.1178 1.37959 9.95775L2.15059 4.8195C2.16385 4.73084 2.20844 4.64987 2.27627 4.59125C2.34411 4.53264 2.43069 4.50027 2.52034 4.5H3.75034V5.625C3.75034 5.72446 3.78985 5.81984 3.86017 5.89016C3.9305 5.96049 4.02588 6 4.12534 6C4.22479 6 4.32018 5.96049 4.3905 5.89016C4.46083 5.81984 4.50034 5.72446 4.50034 5.625V4.5H7.50034Z" fill="#F8931F"/>
</svg>
