<svg width="22" height="28" viewBox="0 0 22 28" fill="none" xmlns="http://www.w3.org/2000/svg">
<path d="M3.00016 27.3337C2.26683 27.3337 1.63883 27.0728 1.11616 26.551C0.593498 26.0292 0.332609 25.4012 0.333498 24.667V8.66699C0.333498 7.93366 0.594831 7.30566 1.1175 6.78299C1.64016 6.26033 2.26772 5.99944 3.00016 6.00033H5.66683C5.66683 4.53366 6.18905 3.2781 7.2335 2.23366C8.27794 1.18921 9.5335 0.666992 11.0002 0.666992C12.4668 0.666992 13.7224 1.18921 14.7668 2.23366C15.8113 3.2781 16.3335 4.53366 16.3335 6.00033H19.0002C19.7335 6.00033 20.3615 6.26166 20.8842 6.78433C21.4068 7.30699 21.6677 7.93455 21.6668 8.66699V24.667C21.6668 25.4003 21.4055 26.0283 20.8828 26.551C20.3602 27.0737 19.7326 27.3345 19.0002 27.3337H3.00016ZM3.00016 24.667H19.0002V8.66699H16.3335V11.3337C16.3335 11.7114 16.2055 12.0283 15.9495 12.2843C15.6935 12.5403 15.3771 12.6679 15.0002 12.667C14.6224 12.667 14.3055 12.539 14.0495 12.283C13.7935 12.027 13.6659 11.7105 13.6668 11.3337V8.66699H8.3335V11.3337C8.3335 11.7114 8.2055 12.0283 7.9495 12.2843C7.6935 12.5403 7.37705 12.6679 7.00016 12.667C6.62239 12.667 6.3055 12.539 6.0495 12.283C5.7935 12.027 5.66594 11.7105 5.66683 11.3337V8.66699H3.00016V24.667ZM8.3335 6.00033H13.6668C13.6668 5.26699 13.4055 4.63944 12.8828 4.11766C12.3602 3.59588 11.7326 3.33455 11.0002 3.33366C10.2668 3.33366 9.63883 3.59499 9.11616 4.11766C8.5935 4.64033 8.33261 5.26788 8.3335 6.00033Z" fill="#F8931F"/>
</svg>
