<svg width="14" height="13" viewBox="0 0 14 13" fill="none" xmlns="http://www.w3.org/2000/svg">
<path d="M12.5 0.5H1.5C1.23478 0.5 0.98043 0.605357 0.792893 0.792893C0.605357 0.98043 0.5 1.23478 0.5 1.5V9.5C0.5 9.76522 0.605357 10.0196 0.792893 10.2071C0.98043 10.3946 1.23478 10.5 1.5 10.5H5.21875L6.14375 12.0438C6.23154 12.1928 6.35671 12.3163 6.50688 12.4022C6.65705 12.488 6.82703 12.5331 7 12.5331C7.17297 12.5331 7.34295 12.488 7.49312 12.4022C7.64329 12.3163 7.76846 12.1928 7.85625 12.0438L8.78125 10.5H12.5C12.7652 10.5 13.0196 10.3946 13.2071 10.2071C13.3946 10.0196 13.5 9.76522 13.5 9.5V1.5C13.5 1.23478 13.3946 0.98043 13.2071 0.792893C13.0196 0.605357 12.7652 0.5 12.5 0.5ZM4 6.25C3.85166 6.25 3.70666 6.20601 3.58332 6.1236C3.45999 6.04119 3.36386 5.92406 3.30709 5.78701C3.25032 5.64997 3.23547 5.49917 3.26441 5.35368C3.29335 5.2082 3.36478 5.07456 3.46967 4.96967C3.57456 4.86478 3.7082 4.79335 3.85368 4.76441C3.99917 4.73547 4.14997 4.75033 4.28701 4.80709C4.42406 4.86386 4.54119 4.95999 4.6236 5.08332C4.70601 5.20666 4.75 5.35166 4.75 5.5C4.75 5.69891 4.67098 5.88968 4.53033 6.03033C4.38968 6.17098 4.19891 6.25 4 6.25ZM7 6.25C6.85166 6.25 6.70666 6.20601 6.58332 6.1236C6.45999 6.04119 6.36386 5.92406 6.30709 5.78701C6.25032 5.64997 6.23547 5.49917 6.26441 5.35368C6.29335 5.2082 6.36478 5.07456 6.46967 4.96967C6.57456 4.86478 6.7082 4.79335 6.85368 4.76441C6.99917 4.73547 7.14997 4.75033 7.28701 4.80709C7.42406 4.86386 7.54119 4.95999 7.6236 5.08332C7.70601 5.20666 7.75 5.35166 7.75 5.5C7.75 5.69891 7.67098 5.88968 7.53033 6.03033C7.38968 6.17098 7.19891 6.25 7 6.25ZM10 6.25C9.85166 6.25 9.70666 6.20601 9.58332 6.1236C9.45999 6.04119 9.36386 5.92406 9.30709 5.78701C9.25033 5.64997 9.23547 5.49917 9.26441 5.35368C9.29335 5.2082 9.36478 5.07456 9.46967 4.96967C9.57456 4.86478 9.7082 4.79335 9.85368 4.76441C9.99917 4.73547 10.15 4.75033 10.287 4.80709C10.4241 4.86386 10.5412 4.95999 10.6236 5.08332C10.706 5.20666 10.75 5.35166 10.75 5.5C10.75 5.69891 10.671 5.88968 10.5303 6.03033C10.3897 6.17098 10.1989 6.25 10 6.25Z" fill="#F8931F"/>
</svg>
