<svg width="32" height="32" viewBox="0 0 32 32" fill="none" xmlns="http://www.w3.org/2000/svg">
<path d="M25.2412 7.52182C23.5416 6.74195 21.719 6.16738 19.8133 5.83829C19.7786 5.83194 19.7439 5.84782 19.7261 5.87956C19.4916 6.29647 19.232 6.84035 19.0502 7.26785C17.0005 6.96099 14.9614 6.96099 12.9538 7.26785C12.7719 6.83085 12.5028 6.29647 12.2674 5.87956C12.2495 5.84887 12.2148 5.833 12.1801 5.83829C10.2755 6.16632 8.45293 6.7409 6.75223 7.52182C6.73751 7.52816 6.72489 7.53876 6.71651 7.5525C3.25941 12.7173 2.31236 17.7552 2.77695 22.7307C2.77905 22.755 2.79271 22.7783 2.81163 22.7931C5.09254 24.4681 7.30198 25.485 9.47039 26.1591C9.5051 26.1697 9.54187 26.157 9.56395 26.1284C10.0769 25.4279 10.5341 24.6893 10.9262 23.9126C10.9493 23.8671 10.9272 23.8132 10.8799 23.7952C10.1547 23.5201 9.46408 23.1846 8.79978 22.8037C8.74724 22.773 8.74303 22.6979 8.79137 22.6619C8.93116 22.5571 9.07099 22.4481 9.20448 22.3381C9.22863 22.318 9.26228 22.3137 9.29067 22.3264C13.6548 24.319 18.3796 24.319 22.6923 22.3264C22.7206 22.3127 22.7543 22.3169 22.7795 22.337C22.913 22.4471 23.0528 22.5571 23.1937 22.6619C23.242 22.6979 23.2388 22.773 23.1863 22.8037C22.522 23.192 21.8314 23.5201 21.1051 23.7941C21.0578 23.8121 21.0368 23.8671 21.0599 23.9126C21.4604 24.6882 21.9176 25.4268 22.4211 26.1273C22.4421 26.157 22.4799 26.1697 22.5146 26.1591C24.6936 25.485 26.903 24.4681 29.1839 22.7931C29.2039 22.7783 29.2165 22.7561 29.2186 22.7317C29.7746 16.9796 28.2873 11.983 25.2759 7.55355C25.2685 7.53876 25.2559 7.52816 25.2412 7.52182ZM11.5779 19.7012C10.264 19.7012 9.18134 18.4949 9.18134 17.0135C9.18134 15.532 10.243 14.3258 11.5779 14.3258C12.9233 14.3258 13.9954 15.5426 13.9744 17.0135C13.9744 18.4949 12.9128 19.7012 11.5779 19.7012ZM20.4387 19.7012C19.1248 19.7012 18.0422 18.4949 18.0422 17.0135C18.0422 15.532 19.1038 14.3258 20.4387 14.3258C21.7841 14.3258 22.8562 15.5426 22.8352 17.0135C22.8352 18.4949 21.7841 19.7012 20.4387 19.7012Z" fill="#16132F"/>
</svg>
