<svg width="28" height="25" viewBox="0 0 28 25" fill="none" xmlns="http://www.w3.org/2000/svg">
<path d="M14.1334 20.7333L14.0001 20.8667L13.8534 20.7333C7.52008 14.9867 3.33341 11.1867 3.33341 7.33333C3.33341 4.66667 5.33341 2.66667 8.00008 2.66667C10.0534 2.66667 12.0534 4 12.7601 5.81333H15.2401C15.9467 4 17.9467 2.66667 20.0001 2.66667C22.6667 2.66667 24.6667 4.66667 24.6667 7.33333C24.6667 11.1867 20.4801 14.9867 14.1334 20.7333ZM20.0001 0C17.6801 0 15.4534 1.08 14.0001 2.77333C12.5467 1.08 10.3201 0 8.00008 0C3.89341 0 0.666748 3.21333 0.666748 7.33333C0.666748 12.36 5.20008 16.48 12.0667 22.7067L14.0001 24.4667L15.9334 22.7067C22.8001 16.48 27.3334 12.36 27.3334 7.33333C27.3334 3.21333 24.1067 0 20.0001 0Z" fill="#F8931F"/>
</svg>
