<svg width="38" height="38" viewBox="0 0 38 38" fill="none" xmlns="http://www.w3.org/2000/svg">
<path d="M4.91675 30.817L7.26675 33.167L10.2667 30.1837L7.90008 27.817M19.0001 9.00033C13.4834 9.00033 9.00008 13.4837 9.00008 19.0003C9.00008 24.517 13.4834 29.0003 19.0001 29.0003C24.5167 29.0003 29.0001 24.517 29.0001 19.0003C29.0001 13.467 24.5167 9.00033 19.0001 9.00033ZM32.3334 20.667H37.3334V17.3337H32.3334M27.7334 30.1837L30.7334 33.167L33.0834 30.817L30.1001 27.817M33.0834 7.33366L30.7334 5.00033L27.7334 7.98366L30.1001 10.3503M20.6667 0.666992H17.3334V5.66699H20.6667M10.2667 7.98366L7.26675 5.00033L4.91675 7.33366L7.90008 10.3503L10.2667 7.98366ZM0.666748 20.667H5.66675V17.3337H0.666748M20.6667 32.3337H17.3334V37.3337H20.6667" fill="#F8931F"/>
</svg>
