<svg width="13" height="14" viewBox="0 0 13 14" fill="none" xmlns="http://www.w3.org/2000/svg">
<path d="M10.9993 9.49935C10.7299 9.49925 10.4633 9.55375 10.2156 9.65956C9.96791 9.76537 9.74421 9.9203 9.55804 10.115L4.93304 7.51279C5.02263 7.17636 5.02263 6.82235 4.93304 6.48592L9.55804 3.88373C9.89483 4.2329 10.3474 4.44729 10.8309 4.48675C11.3144 4.52621 11.7957 4.38803 12.1847 4.09808C12.5736 3.80814 12.8435 3.38633 12.9438 2.91168C13.044 2.43704 12.9678 1.94211 12.7293 1.51964C12.4909 1.09716 12.1066 0.776118 11.6484 0.616652C11.1903 0.457186 10.6897 0.47024 10.2404 0.653367C9.79121 0.836495 9.42416 1.17713 9.20805 1.61146C8.99195 2.04579 8.94161 2.54401 9.06648 3.01279L4.44148 5.61498C4.16522 5.32693 3.80908 5.12812 3.4189 5.04413C3.02872 4.96015 2.62233 4.99483 2.25201 5.1437C1.8817 5.29258 1.5644 5.54885 1.34093 5.87955C1.11746 6.21024 0.998047 6.60023 0.998047 6.99935C0.998047 7.39847 1.11746 7.78847 1.34093 8.11916C1.5644 8.44986 1.8817 8.70613 2.25201 8.855C2.62233 9.00388 3.02872 9.03856 3.4189 8.95457C3.80908 8.87059 4.16522 8.67178 4.44148 8.38373L9.06648 10.9859C8.95925 11.3896 8.98111 11.8168 9.12899 12.2074C9.27688 12.5981 9.54337 12.9326 9.89106 13.1641C10.2388 13.3956 10.6502 13.5124 11.0677 13.4982C11.4851 13.4839 11.8877 13.3393 12.2188 13.0847C12.5499 12.83 12.7929 12.4781 12.9138 12.0783C13.0347 11.6784 13.0274 11.2508 12.8929 10.8553C12.7584 10.4599 12.5035 10.1165 12.1639 9.87326C11.8242 9.63007 11.417 9.49932 10.9993 9.49935Z" fill="#F8931F"/>
</svg>
