<svg width="40" height="40" viewBox="0 0 40 40" fill="none" xmlns="http://www.w3.org/2000/svg">
<mask id="path-1-inside-1_4_4475" fill="white">
<path d="M31.6667 1.66699L29.5667 6.25033L25.0001 8.33366L29.5667 10.4337L31.6667 15.0003L33.7501 10.4337L38.3334 8.33366L33.7501 6.25033M15.0001 6.66699L10.8334 15.8337L1.66675 20.0003L10.8334 24.167L15.0001 33.3337L19.1667 24.167L28.3334 20.0003L19.1667 15.8337M31.6667 25.0003L29.5667 29.567L25.0001 31.667L29.5667 33.7503L31.6667 38.3337L33.7501 33.7503L38.3334 31.667L33.7501 29.567"/>
</mask>
<path d="M31.6667 1.66699L29.5667 6.25033L25.0001 8.33366L29.5667 10.4337L31.6667 15.0003L33.7501 10.4337L38.3334 8.33366L33.7501 6.25033M15.0001 6.66699L10.8334 15.8337L1.66675 20.0003L10.8334 24.167L15.0001 33.3337L19.1667 24.167L28.3334 20.0003L19.1667 15.8337M31.6667 25.0003L29.5667 29.567L25.0001 31.667L29.5667 33.7503L31.6667 38.3337L33.7501 33.7503L38.3334 31.667L33.7501 29.567" fill="#F8931F"/>
<path d="M29.5667 6.25033L29.8158 6.7962L30.0191 6.70344L30.1122 6.50025L29.5667 6.25033ZM25.0001 8.33366L24.7511 7.78778L23.5592 8.33149L24.7494 8.87878L25.0001 8.33366ZM29.5667 10.4337L30.1119 10.183L30.0191 9.98129L29.8174 9.88854L29.5667 10.4337ZM31.6667 15.0003L31.1216 15.251L31.6689 16.4412L32.2126 15.2494L31.6667 15.0003ZM33.7501 10.4337L33.5002 9.88819L33.297 9.98129L33.2042 10.1846L33.7501 10.4337ZM38.3334 8.33366L38.5833 8.87913L39.7786 8.33148L38.5817 7.78744L38.3334 8.33366ZM10.8334 15.8337L11.0817 16.3799L11.2865 16.2868L11.3796 16.0819L10.8334 15.8337ZM1.66675 20.0003L1.41847 19.4541L0.216782 20.0003L1.41847 20.5465L1.66675 20.0003ZM10.8334 24.167L11.3796 23.9187L11.2865 23.7139L11.0817 23.6208L10.8334 24.167ZM15.0001 33.3337L14.4539 33.5819L15.0001 34.7836L15.5463 33.5819L15.0001 33.3337ZM19.1667 24.167L18.9185 23.6208L18.7136 23.7139L18.6205 23.9187L19.1667 24.167ZM28.3334 20.0003L28.5817 20.5465L29.7834 20.0003L28.5817 19.4541L28.3334 20.0003ZM29.5667 29.567L29.8174 30.1121L30.0191 30.0194L30.1119 29.8177L29.5667 29.567ZM25.0001 31.667L24.7494 31.1219L23.5592 31.6692L24.7511 32.2129L25.0001 31.667ZM29.5667 33.7503L30.1122 33.5004L30.0191 33.2972L29.8158 33.2044L29.5667 33.7503ZM31.6667 38.3337L31.1213 38.5836L31.6689 39.7788L32.213 38.5819L31.6667 38.3337ZM33.7501 33.7503L33.5018 33.2041L33.297 33.2972L33.2039 33.502L33.7501 33.7503ZM38.3334 31.667L38.5817 32.2132L39.7786 31.6692L38.5833 31.1215L38.3334 31.667ZM31.1213 1.41707L29.0213 6.0004L30.1122 6.50025L32.2122 1.91692L31.1213 1.41707ZM29.3177 5.70445L24.7511 7.78778L25.2491 8.87954L29.8158 6.7962L29.3177 5.70445ZM24.7494 8.87878L29.3161 10.9788L29.8174 9.88854L25.2508 7.78853L24.7494 8.87878ZM29.0216 10.6843L31.1216 15.251L32.2119 14.7496L30.1119 10.183L29.0216 10.6843ZM32.2126 15.2494L34.296 10.6827L33.2042 10.1846L31.1209 14.7513L32.2126 15.2494ZM34 10.9791L38.5833 8.87913L38.0835 7.78819L33.5002 9.88819L34 10.9791ZM38.5817 7.78744L33.9984 5.70411L33.5018 6.79655L38.0851 8.87988L38.5817 7.78744ZM14.4539 6.41871L10.2872 15.5854L11.3796 16.0819L15.5463 6.91527L14.4539 6.41871ZM10.5851 15.2874L1.41847 19.4541L1.91503 20.5465L11.0817 16.3799L10.5851 15.2874ZM1.41847 20.5465L10.5851 24.7132L11.0817 23.6208L1.91503 19.4541L1.41847 20.5465ZM10.2872 24.4153L14.4539 33.5819L15.5463 33.0854L11.3796 23.9187L10.2872 24.4153ZM15.5463 33.5819L19.713 24.4153L18.6205 23.9187L14.4539 33.0854L15.5463 33.5819ZM19.415 24.7132L28.5817 20.5465L28.0851 19.4541L18.9185 23.6208L19.415 24.7132ZM28.5817 19.4541L19.415 15.2874L18.9185 16.3799L28.0851 20.5465L28.5817 19.4541ZM31.1216 24.7496L29.0216 29.3163L30.1119 29.8177L32.2119 25.251L31.1216 24.7496ZM29.3161 29.0219L24.7494 31.1219L25.2508 32.2121L29.8174 30.1121L29.3161 29.0219ZM24.7511 32.2129L29.3177 34.2962L29.8158 33.2044L25.2491 31.1211L24.7511 32.2129ZM29.0213 34.0003L31.1213 38.5836L32.2122 38.0837L30.1122 33.5004L29.0213 34.0003ZM32.213 38.5819L34.2963 33.9986L33.2039 33.502L31.1205 38.0854L32.213 38.5819ZM33.9984 34.2965L38.5817 32.2132L38.0851 31.1208L33.5018 33.2041L33.9984 34.2965ZM38.5833 31.1215L34 29.0215L33.5002 30.1125L38.0835 32.2125L38.5833 31.1215Z" fill="#16132F" mask="url(#path-1-inside-1_4_4475)"/>
</svg>
