<svg width="18" height="18" viewBox="0 0 18 18" fill="none" xmlns="http://www.w3.org/2000/svg">
<path d="M15.9633 6.20743L11.5002 5.5588L9.50509 1.51407C9.4506 1.40333 9.36095 1.31368 9.25021 1.25919C8.97247 1.12208 8.63497 1.23633 8.49611 1.51407L6.50099 5.5588L2.0379 6.20743C1.91486 6.22501 1.80236 6.28301 1.71622 6.3709C1.61209 6.47793 1.55471 6.62192 1.55669 6.77123C1.55867 6.92054 1.61984 7.06296 1.72677 7.16719L4.95587 10.3154L4.19298 14.7609C4.17509 14.8644 4.18653 14.9707 4.22601 15.068C4.26549 15.1652 4.33143 15.2494 4.41634 15.3111C4.50126 15.3728 4.60175 15.4094 4.70644 15.4169C4.81112 15.4243 4.9158 15.4023 5.00861 15.3533L9.0006 13.2545L12.9926 15.3533C13.1016 15.4113 13.2281 15.4307 13.3494 15.4096C13.6553 15.3568 13.861 15.0668 13.8082 14.7609L13.0453 10.3154L16.2744 7.16719C16.3623 7.08106 16.4203 6.96856 16.4379 6.84551C16.4854 6.5379 16.2709 6.25313 15.9633 6.20743Z" fill="#F8931F"/>
</svg>
