<svg width="20" height="20" viewBox="0 0 20 20" fill="none" xmlns="http://www.w3.org/2000/svg">
<path d="M17.7369 6.89638L12.7779 6.17567L10.5611 1.68153C10.5006 1.55849 10.4009 1.45888 10.2779 1.39833C9.96931 1.24599 9.59431 1.37294 9.44001 1.68153L7.22321 6.17567L2.26423 6.89638C2.12751 6.91591 2.00251 6.98036 1.90681 7.07802C1.79111 7.19694 1.72735 7.35692 1.72955 7.52283C1.73174 7.68873 1.79972 7.84697 1.91852 7.96278L5.50642 11.4608L4.65876 16.4003C4.63888 16.5152 4.6516 16.6334 4.69546 16.7414C4.73933 16.8494 4.81259 16.943 4.90694 17.0116C5.00129 17.0801 5.11295 17.1208 5.22927 17.1291C5.34558 17.1374 5.46189 17.1129 5.56501 17.0585L10.0006 14.7265L14.4361 17.0585C14.5572 17.1229 14.6978 17.1444 14.8326 17.121C15.1724 17.0624 15.4009 16.7401 15.3424 16.4003L14.4947 11.4608L18.0826 7.96278C18.1802 7.86708 18.2447 7.74208 18.2642 7.60536C18.317 7.26356 18.0787 6.94716 17.7369 6.89638Z" fill="#FF6300"/>
</svg>
