<svg width="22" height="22" viewBox="0 0 22 22" fill="none" xmlns="http://www.w3.org/2000/svg">
<path d="M11.0002 10.9997C9.5335 10.9997 8.27794 10.4775 7.2335 9.43301C6.18905 8.38856 5.66683 7.13301 5.66683 5.66634C5.66683 4.19967 6.18905 2.94412 7.2335 1.89967C8.27794 0.85523 9.5335 0.333008 11.0002 0.333008C12.4668 0.333008 13.7224 0.85523 14.7668 1.89967C15.8113 2.94412 16.3335 4.19967 16.3335 5.66634C16.3335 7.13301 15.8113 8.38856 14.7668 9.43301C13.7224 10.4775 12.4668 10.9997 11.0002 10.9997ZM19.0002 21.6663H3.00016C2.26683 21.6663 1.63883 21.4055 1.11616 20.8837C0.593498 20.3619 0.332609 19.7339 0.333498 18.9997V17.933C0.333498 17.1775 0.528165 16.4828 0.917499 15.849C1.30683 15.2152 1.82328 14.7321 2.46683 14.3997C3.84461 13.7108 5.24461 13.1939 6.66683 12.849C8.08905 12.5041 9.5335 12.3321 11.0002 12.333C12.4668 12.333 13.9113 12.5055 15.3335 12.8503C16.7557 13.1952 18.1557 13.7117 19.5335 14.3997C20.1779 14.733 20.6948 15.2166 21.0842 15.8503C21.4735 16.4841 21.6677 17.1783 21.6668 17.933V18.9997C21.6668 19.733 21.4055 20.361 20.8828 20.8837C20.3602 21.4063 19.7326 21.6672 19.0002 21.6663ZM3.00016 18.9997H19.0002V17.933C19.0002 17.6886 18.9388 17.4663 18.8162 17.2663C18.6935 17.0663 18.5326 16.9108 18.3335 16.7997C17.1335 16.1997 15.9224 15.7499 14.7002 15.4503C13.4779 15.1508 12.2446 15.0006 11.0002 14.9997C9.75572 14.9997 8.52239 15.1499 7.30017 15.4503C6.07794 15.7508 4.86683 16.2006 3.66683 16.7997C3.46683 16.9108 3.3055 17.0663 3.18283 17.2663C3.06016 17.4663 2.99928 17.6886 3.00016 17.933V18.9997ZM11.0002 8.33301C11.7335 8.33301 12.3615 8.07167 12.8842 7.54901C13.4068 7.02634 13.6677 6.39879 13.6668 5.66634C13.6668 4.93301 13.4055 4.30501 12.8828 3.78234C12.3602 3.25968 11.7326 2.99879 11.0002 2.99967C10.2668 2.99967 9.63883 3.26101 9.11616 3.78367C8.5935 4.30634 8.33261 4.9339 8.3335 5.66634C8.3335 6.39967 8.59483 7.02767 9.1175 7.55034C9.64017 8.07301 10.2677 8.3339 11.0002 8.33301Z" fill="#F8931F"/>
</svg>
