<svg width="26" height="26" viewBox="0 0 26 26" fill="none" xmlns="http://www.w3.org/2000/svg">
<path d="M24.4729 17.125L24.508 17.0078C25.4146 14.4128 25.4146 11.5872 24.508 8.99219L24.4729 8.875C23.6176 6.51717 22.0583 4.47917 20.0062 3.03704C17.9541 1.59491 15.5084 0.818334 13.0002 0.8125C10.4913 0.814967 8.04398 1.59022 5.99123 3.0328C3.93848 4.47539 2.37993 6.51528 1.52756 8.875L1.4924 8.99219C0.585866 11.5872 0.585866 14.4128 1.4924 17.0078L1.52756 17.125C2.37993 19.4847 3.93848 21.5246 5.99123 22.9672C8.04398 24.4098 10.4913 25.185 13.0002 25.1875C15.5092 25.185 17.9565 24.4098 20.0092 22.9672C22.062 21.5246 23.6205 19.4847 24.4729 17.125ZM10.0119 17.6875H15.9885C15.388 19.5516 14.3654 21.252 13.0002 22.6562C11.6351 21.252 10.6124 19.5516 10.0119 17.6875ZM9.51975 15.8125C9.16047 13.9547 9.16047 12.0453 9.51975 10.1875H16.4807C16.6591 11.1144 16.7493 12.0561 16.7502 13C16.7499 13.9439 16.6597 14.8857 16.4807 15.8125H9.51975ZM2.68772 13C2.68971 12.0494 2.81979 11.1034 3.07443 10.1875H7.60959C7.29709 12.0495 7.29709 13.9505 7.60959 15.8125H3.07443C2.81979 14.8966 2.68971 13.9506 2.68772 13ZM15.9885 8.3125H10.0119C10.6124 6.44838 11.6351 4.74801 13.0002 3.34375C14.3654 4.74801 15.388 6.44838 15.9885 8.3125ZM18.3908 10.1875H22.926C23.4418 12.027 23.4418 13.973 22.926 15.8125H18.3908C18.7033 13.9505 18.7033 12.0495 18.3908 10.1875ZM22.1877 8.3125H17.969C17.4051 6.33825 16.4441 4.49993 15.1447 2.91016C16.645 3.23409 18.0548 3.88662 19.2726 4.82076C20.4905 5.75491 21.486 6.94743 22.1877 8.3125ZM10.8557 2.91016C9.55637 4.49993 8.59533 6.33825 8.03147 8.3125H3.81272C4.51438 6.94743 5.50996 5.75491 6.72779 4.82076C7.94563 3.88662 9.35542 3.23409 10.8557 2.91016ZM3.81272 17.6875H8.03147C8.59533 19.6617 9.55637 21.5001 10.8557 23.0898C9.35449 22.7682 7.94368 22.1166 6.72551 21.1822C5.50735 20.2478 4.51237 19.0541 3.81272 17.6875ZM15.1447 23.0898C16.4441 21.5001 17.4051 19.6617 17.969 17.6875H22.1877C21.4881 19.0541 20.4931 20.2478 19.2749 21.1822C18.0568 22.1166 16.6459 22.7682 15.1447 23.0898Z" fill="#16132F"/>
</svg>
